HIERARCHY
ROOT Hips
{
	OFFSET -3.958830 18.904000 13.208200
	CHANNELS 6 Xposition Yposition Zposition Zrotation Yrotation Xrotation 
	JOINT LHipJoint
	{
		OFFSET 0.000000 0.000000 0.000000
		CHANNELS 3 Zrotation Yrotation Xrotation
		JOINT LeftUpLeg
		{
			OFFSET 1.800000 -1.400000 0.085000
			CHANNELS 3 Zrotation Yrotation Xrotation
			JOINT LeftLeg
			{
				OFFSET 2.215000 -6.000000 0.000000
				CHANNELS 3 Zrotation Yrotation Xrotation
				JOINT LeftFoot
				{
					OFFSET 2.500000 -6.900000 0.000000
					CHANNELS 3 Zrotation Yrotation Xrotation
					JOINT LeftToeBase
					{
						OFFSET 0.200000 -0.500000 1.950000
						CHANNELS 3 Zrotation Yrotation Xrotation
						End Site
						{
							OFFSET 0.000000 0.000000 0.000000
						}
					}
				}
			}
		}
	}
	JOINT RHipJoint
	{
		OFFSET 0.000000 0.000000 0.000000
		CHANNELS 3 Zrotation Yrotation Xrotation
		JOINT RightUpLeg
		{
			OFFSET -1.800000 -1.400000 0.085000
			CHANNELS 3 Zrotation Yrotation Xrotation
			JOINT RightLeg
			{
				OFFSET -2.215000 -6.000000 0.000000
				CHANNELS 3 Zrotation Yrotation Xrotation
				JOINT RightFoot
				{
					OFFSET -2.500000 -6.900000 0.000000
					CHANNELS 3 Zrotation Yrotation Xrotation
					JOINT RightToeBase
					{
						OFFSET -0.200000 -0.500000 1.950000
						CHANNELS 3 Zrotation Yrotation Xrotation
						End Site
						{
							OFFSET 0.000000 0.000000 0.000000
						}
					}
				}
			}
		}
	}
	JOINT LowerBack
	{
		OFFSET 0.000000 0.000000 0.000000
		CHANNELS 3 Zrotation Yrotation Xrotation
		JOINT Spine
		{
			OFFSET -0.087000 1.940000 -0.288900
			CHANNELS 3 Zrotation Yrotation Xrotation
			JOINT Spine1
			{
				OFFSET 0.000000 1.950000 0.060000
				CHANNELS 3 Zrotation Yrotation Xrotation
				JOINT Neck
				{
					OFFSET 0.000000 0.000000 0.000000
					CHANNELS 3 Zrotation Yrotation Xrotation
					JOINT Neck1
					{
						OFFSET 0.000000 1.600000 0.340000
						CHANNELS 3 Zrotation Yrotation Xrotation
						JOINT Head
						{
							OFFSET 0.000000 1.667000 -0.240000
							CHANNELS 3 Zrotation Yrotation Xrotation
							End Site
							{
								OFFSET 0.000000 0.000000 0.000000
							}
						}
					}
				}
				JOINT LeftShoulder
				{
					OFFSET 0.000000 0.000000 0.000000
					CHANNELS 3 Zrotation Yrotation Xrotation
					JOINT LeftArm
					{
						OFFSET 2.700000 1.550000 -0.730000
						CHANNELS 3 Zrotation Yrotation Xrotation
						JOINT LeftForeArm
						{
							OFFSET 5.450000 0.000000 0.000000
							CHANNELS 3 Zrotation Yrotation Xrotation
							JOINT LeftHand
							{
								OFFSET 3.450000 0.000000 0.000000
								CHANNELS 3 Zrotation Yrotation Xrotation
								JOINT LeftHandIndex1
								{
									OFFSET 0.750000 0.000000 0.000000
									CHANNELS 3 Zrotation Yrotation Xrotation
									End Site
									{
										OFFSET 0.000000 0.000000 0.000000
									}
								}
							}
						}
					}
				}
				JOINT RightShoulder
				{
					OFFSET 0.000000 0.000000 0.000000
					CHANNELS 3 Zrotation Yrotation Xrotation
					JOINT RightArm
					{
						OFFSET -2.700000 1.550000 -0.730000
						CHANNELS 3 Zrotation Yrotation Xrotation
						JOINT RightForeArm
						{
							OFFSET -5.450000 0.000000 0.000000
							CHANNELS 3 Zrotation Yrotation Xrotation
							JOINT RightHand
							{
								OFFSET -3.450000 0.000000 0.000000
								CHANNELS 3 Zrotation Yrotation Xrotation
								JOINT RightHandIndex1
								{
									OFFSET -0.750000 0.000000 0.000000
									CHANNELS 3 Zrotation Yrotation Xrotation
									End Site
									{
										OFFSET 0.000000 0.000000 0.000000
									}
								}
							}
						}
					}
				}
			}
		}
	}
}
MOTION
Frames: 12
Frame Time: 0.016667
-0.154260 17.881810 -1.828680 -11.029337 23.970268 -1.887060 -14.724251 11.995687 1.509141 8.526804 -0.987021 -12.802076 -0.277278 4.718377 16.249291 -0.669481 3.959342 3.496713 -0.120350 -0.464620 -0.252350 18.951618 -10.096414 5.237217 -8.412616 13.485069 -43.852905 24.156935 -15.930505 41.545837 -0.855602 -8.120582 1.683501 -0.107770 0.762320 0.125310 -5.724794 1.362953 -8.037327 22.213067 -5.027943 12.562123 -16.021454 -1.940673 10.967934 4.655838 0.688677 -8.509260 0.964092 -7.382490 33.501295 -1.046910 -12.211580 0.099040 -6.564939 3.042503 0.235846 -30.727907 1.794233 -4.432266 4.718016 -11.359982 -1.072182 -4.271285 2.575419 0.271600 0.398720 -0.444900 0.180990 -3.096171 -2.812571 9.205304 41.226283 4.847044 0.571234 177.499870 60.629979 162.541635 1.706599 -2.021716 -0.419460 0.430760 0.332050 -0.028850 
-0.182890 17.837680 -1.827640 -10.707794 23.230628 -0.483823 -14.727012 12.068679 1.610939 8.056668 -1.138119 -13.642383 -0.156020 4.600967 16.189594 -0.671705 3.909085 3.530395 -0.124410 -0.461000 -0.275680 18.924551 -10.231487 5.072127 -6.648394 12.762735 -43.777115 19.935600 -12.396160 37.089115 -0.465553 -6.690458 2.145441 -0.087800 0.807290 0.137970 -5.662786 1.381005 -7.868244 21.731177 -4.398410 11.045570 -15.141094 -1.703575 10.866909 4.431999 0.371404 -8.307565 0.523272 -7.299094 31.842652 -2.155410 -11.643630 1.905280 -5.984652 3.683175 0.032315 -30.587584 1.712905 -4.413097 4.742443 -11.934505 -1.064323 -4.319082 2.636954 0.197590 0.455940 -0.494530 0.201720 -3.240399 -3.107448 8.985399 39.854769 5.269626 1.190917 -178.991657 61.200937 169.027187 1.699894 -2.121872 -0.416930 0.412470 0.325830 -0.011790 
-0.229000 17.756150 -1.815340 -10.517469 21.943019 1.869986 -14.710134 12.078715 1.766986 7.841573 -1.378369 -14.557144 -0.957076 4.544042 14.993463 -0.726915 3.896747 3.579422 -0.135190 -0.461520 -0.330260 18.913147 -10.466974 4.718374 -3.373757 11.132778 -42.758378 14.111520 -7.169307 25.816429 0.140657 -4.124630 3.045096 -0.028370 0.932150 0.148100 -5.628210 1.583531 -7.516201 21.648721 -3.209187 7.455908 -14.393468 -1.191294 11.463693 4.090003 0.002505 -7.623485 0.127248 -7.258047 29.249683 -2.987190 -11.291810 4.058180 -5.463999 4.763999 -0.378441 -29.414369 1.333617 -4.144065 5.623518 -13.429025 -1.141958 -4.424899 2.717352 0.084960 0.569820 -0.605350 0.238400 -2.948076 -4.064630 8.382174 37.845017 6.188317 2.715166 -171.663915 61.561443 -177.965875 1.679884 -2.269607 -0.453450 0.435220 0.343550 0.015540 
-0.285720 17.649720 -1.790670 -10.193101 21.305045 3.885583 -14.746797 12.049219 1.857282 8.071839 -1.556294 -14.749621 -1.820481 4.398340 12.986058 -0.792029 3.885249 3.604857 -0.057310 -0.354820 -0.311160 18.876132 -10.553469 4.377328 -0.825516 9.367167 -40.492529 9.898658 -3.396918 11.543474 0.486267 -2.317052 3.712566 0.094070 0.995270 0.193970 -5.468023 1.612448 -7.235800 20.425402 -1.954184 4.147451 -12.626587 -0.862925 12.146161 3.915384 0.317305 -6.837140 0.859186 -7.993531 26.668714 -4.882960 -10.587710 4.995440 -5.290951 5.556339 -0.883006 -27.344860 0.288853 -3.432116 5.405619 -14.099696 -1.137312 -4.529860 2.839307 -0.035050 0.681380 -0.677410 0.276050 -2.508141 -5.409046 7.479568 35.055825 6.292710 3.766329 -165.238914 62.540609 -167.036898 1.644453 -2.451255 -0.446470 0.418980 0.317730 0.026040 
-0.339860 17.535560 -1.781720 -9.738807 20.784012 5.295753 -14.789111 11.918990 1.849518 8.328152 -1.647257 -14.601426 -2.867450 4.432901 11.625976 -0.843652 3.966590 3.602508 0.022730 -0.229240 -0.279150 18.874122 -10.418407 4.279506 -0.541690 8.670856 -38.995967 7.609550 -1.487187 1.118552 0.546030 -1.957695 3.857743 0.226030 1.057980 0.213290 -5.330846 1.570232 -7.139316 19.401053 -1.255338 2.056177 -11.433236 -0.767604 12.669556 3.814557 0.748803 -6.241226 1.790583 -8.319699 24.660837 -5.860020 -9.968340 4.751520 -5.289726 5.762716 -1.041337 -24.252989 -0.313776 -2.478311 3.952168 -14.331886 -0.972274 -4.606024 2.894588 -0.125250 0.770970 -0.722740 0.313420 -2.081259 -6.275423 6.473776 32.162706 6.933507 4.516899 -158.951132 64.439367 -157.541475 1.622232 -2.548434 -0.456550 0.454350 0.285800 0.038700 
-0.400130 17.418430 -1.785620 -9.392167 20.015124 6.012341 -14.808640 11.845276 1.836881 8.481504 -1.655877 -14.208210 -3.341329 4.443198 10.797797 -0.850737 4.031948 3.608154 0.005900 -0.221500 -0.301750 18.874276 -10.309727 4.324813 -1.329088 8.732645 -39.386207 7.149620 -1.038997 -1.636947 0.561641 -1.999375 3.866658 0.253770 1.123340 0.224560 -5.258504 1.562005 -7.135533 18.537589 -0.530432 1.442558 -10.268672 -0.337125 12.565347 3.647471 1.137459 -6.201291 2.568168 -8.600157 23.631494 -6.695910 -9.467230 5.198280 -4.365077 6.026453 -1.145312 -22.764624 -0.642794 -2.212093 3.645781 -17.744772 -0.772618 -4.643301 2.937373 -0.179280 0.844000 -0.757550 0.323990 -2.625059 -6.709672 6.317468 31.280639 7.022843 4.718021 -151.261408 66.813485 -147.862973 1.643541 -2.526264 -0.471980 0.487130 0.299210 0.051090 
-0.471490 17.299050 -1.778200 -7.838416 21.074988 6.424427 -14.909004 12.030172 1.913408 7.475377 -1.754561 -14.679745 -3.284303 4.569991 11.788495 -0.883875 4.113713 3.604305 -0.031060 -0.255090 -0.343750 18.763133 -10.269253 4.241532 -3.585784 8.061287 -41.261302 6.831966 -1.841865 3.912214 0.619081 -2.085717 3.826540 0.268290 1.198050 0.220500 -4.963544 1.085814 -7.030398 15.248456 -0.581648 1.588911 -8.119402 -0.748663 12.228738 3.117030 1.683102 -6.206584 3.431305 -8.751512 22.621841 -7.057540 -9.164840 6.330200 -3.960581 5.689846 -0.925288 -20.007651 -0.210566 -1.795241 2.116580 -22.138219 -0.305541 -4.645987 3.037515 -0.228850 0.912620 -0.825090 0.328480 -1.906656 -6.793829 5.692778 29.756196 7.442182 5.016961 -143.044092 69.392605 -138.711557 1.676730 -2.450282 -0.510170 0.508020 0.326850 0.054980 
-0.539100 17.211810 -1.777210 -6.057286 22.759954 6.669952 -15.018829 12.263681 1.989713 5.629742 -1.985454 -16.363120 -1.969133 4.577692 14.612766 -0.873822 4.132136 3.609960 -0.055760 -0.274880 -0.402480 18.646840 -10.269692 4.164049 -5.906091 7.403867 -43.455227 5.929165 -3.208132 13.517244 0.609992 -2.583981 3.640267 0.265450 1.268130 0.243020 -4.663484 0.544364 -6.911343 11.904647 -0.929421 2.095449 -6.280867 -1.382302 11.676362 2.643083 2.235800 -5.952312 4.207466 -9.119673 22.135951 -7.057450 -9.481140 7.699670 -4.940938 5.194380 -0.833829 -17.499471 0.337579 -1.526496 3.359293 -28.390021 -0.170909 -4.641927 3.193969 -0.300790 0.976160 -0.879910 0.354190 0.110015 -6.819660 4.883252 28.255696 8.388866 5.891577 -133.083622 71.942493 -128.546497 1.763227 -2.213255 -0.501430 0.498830 0.339360 0.086870 
-0.613190 17.187730 -1.780160 -4.683067 23.963122 6.144913 -15.109825 12.470470 2.081534 3.520067 -2.370263 -18.800451 0.879245 4.354897 19.182655 -0.899347 4.221832 3.543667 -0.087870 -0.329720 -0.396710 18.550844 -10.252562 4.121633 -7.816972 7.087624 -44.032295 5.984000 -5.006424 23.619123 0.462177 -3.633556 3.243081 0.228920 1.240210 0.190170 -4.428301 -0.009299 -6.937933 9.575683 -1.007526 3.702452 -4.911317 -1.475634 11.370959 2.103788 2.541383 -6.019046 4.256703 -9.365496 23.233879 -6.160330 -10.096840 7.026650 -6.652449 3.963960 -0.768176 -15.558241 0.447153 -1.495443 5.393513 -34.808615 -0.550966 -4.546393 3.170973 -0.223360 0.919940 -0.865670 0.319320 2.917071 -5.946051 4.810057 27.535077 9.033265 7.321375 -116.367411 73.867225 -110.661597 2.050904 -0.487538 -0.540900 0.543270 0.369450 0.056220 
-0.704230 17.223170 -1.812650 -3.752826 24.645798 4.274791 -15.159031 12.505709 2.363999 1.346782 -3.248229 -22.354065 4.525568 4.106733 27.279228 -0.764516 4.782338 3.222003 -0.086860 -0.365290 -0.319100 18.474581 -10.370930 4.036987 -8.049401 7.056521 -42.515913 5.337105 -6.681306 32.806609 0.167130 -4.809638 2.785943 0.125830 1.046480 0.151550 -4.315669 -0.147082 -7.288532 8.179873 -0.588444 8.196821 -3.706741 -0.886552 9.440101 1.849633 2.803263 -5.996405 4.134936 -9.114304 26.818681 -4.447740 -10.281200 4.393920 -7.041104 1.297757 0.510890 -16.930806 0.137616 -2.414035 9.529033 -40.800529 -2.098161 -4.311731 3.069359 -0.012130 0.723930 -0.704510 0.250580 3.890758 -2.740722 2.687476 30.828031 5.251460 -7.510388 137.154756 87.402524 136.052779 1.153479 -0.862795 -0.516580 0.520340 0.366680 -0.005980 
-0.792500 17.266390 -1.847020 -3.536170 23.599087 2.239260 -15.185813 12.356716 2.878293 0.350212 -4.742266 -27.060794 6.750908 4.262567 36.463230 -0.512795 6.006944 2.699512 -0.055210 -0.355140 -0.264300 18.448963 -10.328819 3.870532 -6.574174 7.530572 -39.865364 4.157730 -7.664904 39.906814 -0.126443 -5.786560 2.440092 0.074370 0.909980 0.111490 -4.238565 -0.312316 -7.721196 8.307768 -0.217457 12.695114 -3.360807 0.028553 8.861247 1.158970 2.178987 -6.761525 2.540811 -8.587916 29.830674 -1.754210 -10.938870 1.385060 -7.418823 0.282577 0.512454 -19.247276 -1.052973 -3.655563 15.000486 -46.113551 -4.731557 -4.099754 2.952457 0.160040 0.556530 -0.576490 0.230090 5.381614 -0.891048 3.789053 32.987080 6.200476 -6.099826 5.826914 84.534754 0.906901 1.537936 -1.914366 -0.504200 0.527070 0.344160 -0.038920 
-0.864860 17.283400 -1.862800 -4.194763 21.200633 0.897241 -15.166874 11.886246 3.457632 1.520052 -6.219306 -32.919820 6.415706 5.563840 44.692410 -0.224832 7.509184 2.117522 -0.052680 -0.362870 -0.239610 18.530150 -10.190664 3.746624 -3.588019 8.571105 -37.441904 2.507309 -7.934915 45.480419 -0.361880 -6.578599 2.187258 0.039710 0.842120 0.093280 -4.302312 -0.049362 -8.128335 9.954439 0.671143 15.510020 -3.479142 1.689628 7.667799 0.872389 1.606980 -6.865470 1.331139 -8.844919 31.425887 -0.744230 -11.442600 0.274100 -7.426375 0.334429 0.157516 -22.800937 -3.737794 -4.331469 19.822803 -50.777828 -7.632080 -3.998940 2.882917 0.225850 0.483980 -0.524520 0.205800 5.645445 -0.023754 4.103064 35.898330 6.015252 -7.220904 13.390729 75.216500 6.197255 1.620529 -1.831232 -0.490990 0.517650 0.341050 -0.056070 
